<svg version="1.1" xmlns="http://www.w3.org/2000/svg" xmlns:xlink="http://www.w3.org/1999/xlink" width="660" height="660" viewBox="0 0 660 660"><defs></defs><g transform="scale(1,1)"><g></g><g transform="translate(300,300)"><g><path fill="#FFFFFF" stroke="rgb(0,0,0)" paint-order="fill stroke markers" d=" M 150 0 L 75.00000000000001 129.9038105676658 L -74.99999999999997 129.9038105676658 L -150 1.8369701987210297e-14 L -75.00000000000007 -129.90381056766577 L 75.00000000000001 -129.9038105676658 L 150 0 L 150 0" stroke-opacity="1" stroke-linecap="round" stroke-miterlimit="10" stroke-width="4"></path></g></g><g transform="translate(300,300)"><g><path fill="rgb(0,0,0)" stroke="#000000" paint-order="fill stroke markers" d=" M -37.5 0 C -37.5 -20.7106781175 -20.7106781175 -37.5 0 -37.5 C 20.7106781175 -37.5 37.5 -20.7106781175 37.5 0 C 37.5 20.7106781175 20.7106781175 37.5 0 37.5 C -20.7106781175 37.5 -37.5 20.7106781175 -37.5 0 Z" fill-opacity="1" stroke-linecap="round" stroke-miterlimit="10"></path></g></g><g transform="translate(300,300)"><g></g></g><g transform="translate(300,300)"><g><path fill="none" stroke="rgb(0,0,0)" paint-order="fill stroke markers" d=" M 60 0 L 60 0" stroke-opacity="1" stroke-linecap="round" stroke-miterlimit="10" stroke-width="6.472"></path><g transform="rotate(29.999999999999996,0,0)"><path fill="none" stroke="rgb(0,0,0)" paint-order="fill stroke markers" d=" M 60 0 L 60 0" stroke-opacity="1" stroke-linecap="round" stroke-miterlimit="10" stroke-width="6.472"></path><g transform="rotate(29.999999999999996,0,0)"><path fill="none" stroke="rgb(0,0,0)" paint-order="fill stroke markers" d=" M 60 0 L 60 0" stroke-opacity="1" stroke-linecap="round" stroke-miterlimit="10" stroke-width="6.472"></path><g transform="rotate(29.999999999999996,0,0)"><path fill="none" stroke="rgb(0,0,0)" paint-order="fill stroke markers" d=" M 60 0 L 60 0" stroke-opacity="1" stroke-linecap="round" stroke-miterlimit="10" stroke-width="6.472"></path><g transform="rotate(29.999999999999996,0,0)"><path fill="none" stroke="rgb(0,0,0)" paint-order="fill stroke markers" d=" M 60 0 L 60 0" stroke-opacity="1" stroke-linecap="round" stroke-miterlimit="10" stroke-width="6.472"></path><g transform="rotate(29.999999999999996,0,0)"><path fill="none" stroke="rgb(0,0,0)" paint-order="fill stroke markers" d=" M 60 0 L 60 0" stroke-opacity="1" stroke-linecap="round" stroke-miterlimit="10" stroke-width="6.472"></path><g transform="rotate(29.999999999999996,0,0)"><path fill="none" stroke="rgb(0,0,0)" paint-order="fill stroke markers" d=" M 60 0 L 60 0" stroke-opacity="1" stroke-linecap="round" stroke-miterlimit="10" stroke-width="6.472"></path><g transform="rotate(29.999999999999996,0,0)"><path fill="none" stroke="rgb(0,0,0)" paint-order="fill stroke markers" d=" M 60 0 L 60 0" stroke-opacity="1" stroke-linecap="round" stroke-miterlimit="10" stroke-width="6.472"></path><g transform="rotate(29.999999999999996,0,0)"><path fill="none" stroke="rgb(0,0,0)" paint-order="fill stroke markers" d=" M 60 0 L 60 0" stroke-opacity="1" stroke-linecap="round" stroke-miterlimit="10" stroke-width="6.472"></path><g transform="rotate(29.999999999999996,0,0)"><path fill="none" stroke="rgb(0,0,0)" paint-order="fill stroke markers" d=" M 60 0 L 60 0" stroke-opacity="1" stroke-linecap="round" stroke-miterlimit="10" stroke-width="6.472"></path><g transform="rotate(29.999999999999996,0,0)"><path fill="none" stroke="rgb(0,0,0)" paint-order="fill stroke markers" d=" M 60 0 L 60 0" stroke-opacity="1" stroke-linecap="round" stroke-miterlimit="10" stroke-width="6.472"></path><g transform="rotate(29.999999999999996,0,0)"><path fill="none" stroke="rgb(0,0,0)" paint-order="fill stroke markers" d=" M 60 0 L 60 0" stroke-opacity="1" stroke-linecap="round" stroke-miterlimit="10" stroke-width="6.472"></path><g transform="rotate(29.999999999999996,0,0)"></g></g></g></g></g></g></g></g></g></g></g></g></g></g><g transform="translate(300,300)"><g></g></g><g transform="translate(300,300)"><g><path fill="rgb(0,0,0)" stroke="none" paint-order="stroke fill markers" d=" M -12 112.5 C -12 105.8725830024 -6.627416997599999 100.5 0 100.5 C 6.627416997599999 100.5 12 105.8725830024 12 112.5 C 12 119.1274169976 6.627416997599999 124.5 0 124.5 C -6.627416997599999 124.5 -12 119.1274169976 -12 112.5 Z" fill-opacity="1"></path><g transform="rotate(59.99999999999999,0,0)"><path fill="rgb(0,0,0)" stroke="none" paint-order="stroke fill markers" d=" M -12 112.5 C -12 105.8725830024 -6.627416997599999 100.5 0 100.5 C 6.627416997599999 100.5 12 105.8725830024 12 112.5 C 12 119.1274169976 6.627416997599999 124.5 0 124.5 C -6.627416997599999 124.5 -12 119.1274169976 -12 112.5 Z" fill-opacity="1"></path><g transform="rotate(59.99999999999999,0,0)"><path fill="rgb(0,0,0)" stroke="none" paint-order="stroke fill markers" d=" M -12 112.5 C -12 105.8725830024 -6.627416997599999 100.5 0 100.5 C 6.627416997599999 100.5 12 105.8725830024 12 112.5 C 12 119.1274169976 6.627416997599999 124.5 0 124.5 C -6.627416997599999 124.5 -12 119.1274169976 -12 112.5 Z" fill-opacity="1"></path><g transform="rotate(59.99999999999999,0,0)"><path fill="rgb(0,0,0)" stroke="none" paint-order="stroke fill markers" d=" M -12 112.5 C -12 105.8725830024 -6.627416997599999 100.5 0 100.5 C 6.627416997599999 100.5 12 105.8725830024 12 112.5 C 12 119.1274169976 6.627416997599999 124.5 0 124.5 C -6.627416997599999 124.5 -12 119.1274169976 -12 112.5 Z" fill-opacity="1"></path><g transform="rotate(59.99999999999999,0,0)"><path fill="rgb(0,0,0)" stroke="none" paint-order="stroke fill markers" d=" M -12 112.5 C -12 105.8725830024 -6.627416997599999 100.5 0 100.5 C 6.627416997599999 100.5 12 105.8725830024 12 112.5 C 12 119.1274169976 6.627416997599999 124.5 0 124.5 C -6.627416997599999 124.5 -12 119.1274169976 -12 112.5 Z" fill-opacity="1"></path><g transform="rotate(59.99999999999999,0,0)"><path fill="rgb(0,0,0)" stroke="none" paint-order="stroke fill markers" d=" M -12 112.5 C -12 105.8725830024 -6.627416997599999 100.5 0 100.5 C 6.627416997599999 100.5 12 105.8725830024 12 112.5 C 12 119.1274169976 6.627416997599999 124.5 0 124.5 C -6.627416997599999 124.5 -12 119.1274169976 -12 112.5 Z" fill-opacity="1"></path><g transform="rotate(59.99999999999999,0,0)"></g></g></g></g></g></g></g></g><g transform="translate(300,300)"><g transform="rotate(29.999999999999996,0,0)"><path fill="none" stroke="rgb(0,0,0)" paint-order="fill stroke markers" d=" M 48 0 L 24.000000000000007 41.569219381653056 L -23.99999999999999 41.569219381653056 L -48 5.878304635907295e-15 L -24.00000000000002 -41.56921938165305 L 24.000000000000007 -41.569219381653056 L 48 0 L 48 0" stroke-opacity="1" stroke-linecap="round" stroke-miterlimit="10" stroke-width="4"></path><path fill="none" stroke="rgb(0,0,0)" paint-order="fill stroke markers" d=" M 73.5 0 L 36.75000000000001 63.652867178156235 L -36.749999999999986 63.65286717815624 L -73.5 9.001153973733046e-15 L -36.750000000000036 -63.65286717815623 L 36.75000000000001 -63.652867178156235 L 73.5 0 L 73.5 0" stroke-opacity="1" stroke-linecap="round" stroke-miterlimit="10" stroke-width="4"></path><path fill="none" stroke="rgb(0,0,0)" paint-order="fill stroke markers" d=" M 99 0 L 49.500000000000014 85.73651497465941 L -49.49999999999998 85.73651497465943 L -99 1.2124003311558797e-14 L -49.50000000000004 -85.73651497465941 L 49.500000000000014 -85.73651497465941 L 99 0 L 99 0" stroke-opacity="1" stroke-linecap="round" stroke-miterlimit="10" stroke-width="4"></path><path fill="none" stroke="rgb(0,0,0)" paint-order="fill stroke markers" d=" M 124.5 0 L 62.250000000000014 107.8201627711626 L -62.24999999999997 107.82016277116261 L -124.5 1.5246852649384548e-14 L -62.25000000000006 -107.82016277116259 L 62.250000000000014 -107.8201627711626 L 124.5 0 L 124.5 0" stroke-opacity="1" stroke-linecap="round" stroke-miterlimit="10" stroke-width="4"></path><path fill="none" stroke="rgb(0,0,0)" paint-order="fill stroke markers" d=" M 150 0 L 75.00000000000001 129.9038105676658 L -74.99999999999997 129.9038105676658 L -150 1.8369701987210297e-14 L -75.00000000000007 -129.90381056766577 L 75.00000000000001 -129.9038105676658 L 150 0 L 150 0" stroke-opacity="1" stroke-linecap="round" stroke-miterlimit="10" stroke-width="4"></path></g></g></g></svg>